<svg width="157" height="24" viewBox="0 0 157 24" fill="none" xmlns="http://www.w3.org/2000/svg">
<path d="M0.651279 23V1.18182H5.92472V9.93892H14.522V1.18182H19.7848V23H14.522V14.2322H5.92472V23H0.651279ZM27.8121 23H22.1445L29.506 1.18182H36.5266L43.8881 23H38.2205L33.0962 6.67898H32.9258L27.8121 23ZM27.0558 14.4134H38.9023V18.419H27.0558V14.4134ZM46.2372 23V1.18182H55.25C56.8835 1.18182 58.2933 1.47656 59.4794 2.06605C60.6726 2.64844 61.5923 3.48651 62.2386 4.58026C62.8849 5.6669 63.2081 6.95597 63.2081 8.44744C63.2081 9.96023 62.8778 11.2457 62.2173 12.304C61.5568 13.3551 60.6193 14.1577 59.4048 14.7116C58.1903 15.2585 56.7521 15.532 55.0902 15.532H49.3906V11.3771H54.1101C54.9055 11.3771 55.5696 11.2741 56.1023 11.0682C56.642 10.8551 57.0504 10.5355 57.3274 10.1094C57.6044 9.67614 57.7429 9.12216 57.7429 8.44744C57.7429 7.77273 57.6044 7.2152 57.3274 6.77486C57.0504 6.32741 56.642 5.99361 56.1023 5.77344C55.5625 5.54616 54.8984 5.43253 54.1101 5.43253H51.5107V23H46.2372ZM58.5206 13.0284L63.9538 23H58.201L52.8743 13.0284H58.5206ZM66.1005 23V1.18182H75.1133C76.7468 1.18182 78.1566 1.47656 79.3427 2.06605C80.5359 2.64844 81.4556 3.48651 82.1019 4.58026C82.7482 5.6669 83.0714 6.95597 83.0714 8.44744C83.0714 9.96023 82.7411 11.2457 82.0806 12.304C81.4201 13.3551 80.4826 14.1577 79.2681 14.7116C78.0536 15.2585 76.6154 15.532 74.9535 15.532H69.2539V11.3771H73.9734C74.7688 11.3771 75.4329 11.2741 75.9656 11.0682C76.5053 10.8551 76.9137 10.5355 77.1907 10.1094C77.4677 9.67614 77.6062 9.12216 77.6062 8.44744C77.6062 7.77273 77.4677 7.2152 77.1907 6.77486C76.9137 6.32741 76.5053 5.99361 75.9656 5.77344C75.4258 5.54616 74.7617 5.43253 73.9734 5.43253H71.3739V23H66.1005ZM78.3839 13.0284L83.8171 23H78.0643L72.7376 13.0284H78.3839ZM91.2372 1.18182V23H85.9638V1.18182H91.2372ZM106.341 7.72301C106.27 6.94176 105.954 6.33452 105.393 5.90128C104.839 5.46094 104.047 5.24077 103.017 5.24077C102.335 5.24077 101.767 5.32955 101.313 5.5071C100.858 5.68466 100.517 5.92969 100.29 6.24219C100.063 6.54759 99.9455 6.89915 99.9384 7.29688C99.9242 7.62358 99.9881 7.91122 100.13 8.1598C100.279 8.40838 100.492 8.62855 100.769 8.82031C101.053 9.00497 101.394 9.16832 101.792 9.31037C102.19 9.45241 102.637 9.5767 103.134 9.68324L105.009 10.1094C106.089 10.3438 107.041 10.6562 107.865 11.0469C108.695 11.4375 109.392 11.9027 109.953 12.4425C110.521 12.9822 110.95 13.6037 111.242 14.3068C111.533 15.0099 111.682 15.7983 111.689 16.6719C111.682 18.0497 111.334 19.2322 110.645 20.2195C109.956 21.2067 108.965 21.9631 107.673 22.4886C106.387 23.0142 104.835 23.277 103.017 23.277C101.192 23.277 99.601 23.0036 98.2445 22.4567C96.888 21.9098 95.8333 21.0788 95.0804 19.9638C94.3276 18.8487 93.9405 17.4389 93.9192 15.7344H98.9689C99.0115 16.4375 99.1998 17.0234 99.5336 17.4922C99.8674 17.9609 100.325 18.3161 100.908 18.5575C101.497 18.799 102.179 18.9197 102.953 18.9197C103.664 18.9197 104.267 18.8239 104.764 18.6321C105.269 18.4403 105.656 18.174 105.926 17.8331C106.195 17.4922 106.334 17.1016 106.341 16.6612C106.334 16.2493 106.206 15.8977 105.958 15.6065C105.709 15.3082 105.325 15.0526 104.807 14.8395C104.296 14.6193 103.642 14.4169 102.847 14.2322L100.567 13.6996C98.6777 13.2663 97.1898 12.5668 96.1032 11.6009C95.0165 10.6278 94.4767 9.31392 94.4838 7.65909C94.4767 6.30966 94.839 5.12713 95.5705 4.11151C96.302 3.09588 97.3141 2.30398 98.6067 1.7358C99.8993 1.16761 101.373 0.883522 103.028 0.883522C104.718 0.883522 106.185 1.17116 107.428 1.74645C108.678 2.31463 109.647 3.11364 110.336 4.14347C111.025 5.1733 111.377 6.36648 111.391 7.72301H106.341ZM134.945 12.0909C134.945 14.4915 134.484 16.5263 133.561 18.1953C132.637 19.8643 131.387 21.1321 129.811 21.9986C128.241 22.8651 126.48 23.2983 124.526 23.2983C122.566 23.2983 120.801 22.8615 119.232 21.9879C117.662 21.1143 116.416 19.8466 115.492 18.1847C114.576 16.5156 114.118 14.4844 114.118 12.0909C114.118 9.69034 114.576 7.65554 115.492 5.98651C116.416 4.31747 117.662 3.04972 119.232 2.18324C120.801 1.31676 122.566 0.883522 124.526 0.883522C126.48 0.883522 128.241 1.31676 129.811 2.18324C131.387 3.04972 132.637 4.31747 133.561 5.98651C134.484 7.65554 134.945 9.69034 134.945 12.0909ZM129.555 12.0909C129.555 10.6705 129.352 9.47017 128.948 8.49006C128.55 7.50994 127.975 6.76775 127.222 6.26349C126.476 5.75923 125.578 5.5071 124.526 5.5071C123.482 5.5071 122.584 5.75923 121.831 6.26349C121.078 6.76775 120.499 7.50994 120.095 8.49006C119.697 9.47017 119.498 10.6705 119.498 12.0909C119.498 13.5114 119.697 14.7116 120.095 15.6918C120.499 16.6719 121.078 17.4141 121.831 17.9183C122.584 18.4226 123.482 18.6747 124.526 18.6747C125.578 18.6747 126.476 18.4226 127.222 17.9183C127.975 17.4141 128.55 16.6719 128.948 15.6918C129.352 14.7116 129.555 13.5114 129.555 12.0909ZM156.593 1.18182V23H152.119L143.436 10.4077H143.298V23H138.024V1.18182H142.563L151.149 13.7528H151.33V1.18182H156.593Z" fill="white"/>
</svg>


